<?xml version="1.0" standalone="no"?>
<!DOCTYPE svg PUBLIC "-//W3C//DTD SVG 20010904//EN"
 "http://www.w3.org/TR/2001/REC-SVG-20010904/DTD/svg10.dtd">
<svg version="1.0" xmlns="http://www.w3.org/2000/svg"
 width="234.000000pt" height="234.000000pt" viewBox="0 0 234.000000 234.000000"
 preserveAspectRatio="xMidYMid meet">
<metadata>
Created by potrace 1.14, written by Peter Selinger 2001-2017
</metadata>
<g transform="translate(0.000000,234.000000) scale(0.100000,-0.100000)"
fill="#000000" stroke="none">
<path d="M1127 1891 c-46 -60 -101 -167 -92 -181 3 -5 1 -10 -6 -10 -7 0 -10
-3 -6 -6 3 -3 2 -16 -2 -28 -5 -11 -5 -31 0 -43 16 -44 57 0 64 67 2 26 40
104 73 153 l18 27 23 -24 c12 -13 36 -52 52 -87 48 -101 55 -192 25 -329 -9
-41 -57 -131 -69 -127 -5 1 -15 23 -22 48 -18 66 -40 111 -81 165 -45 58 -93
105 -128 124 -14 7 -26 17 -26 22 0 5 -4 7 -9 4 -5 -3 -14 1 -21 9 -7 8 -16
12 -21 9 -5 -3 -9 0 -9 7 0 7 -3 9 -7 6 -3 -4 -12 -2 -20 4 -7 6 -13 8 -13 5
0 -4 -10 -2 -21 5 -12 6 -43 13 -68 16 -25 2 -52 6 -59 8 -7 3 -21 -4 -31 -14
-16 -16 -17 -26 -9 -77 5 -32 10 -66 12 -74 4 -25 68 -160 77 -160 4 0 14 -3
22 -6 29 -11 26 28 -7 89 -19 34 -35 65 -35 70 -1 4 -1 8 -2 10 -1 1 -3 13 -5
27 -2 14 -5 38 -8 53 -4 27 -3 27 32 21 21 -4 46 -8 57 -10 38 -7 142 -64 178
-98 20 -18 38 -31 41 -28 4 3 6 0 6 -8 0 -7 14 -28 30 -47 17 -18 30 -40 30
-48 0 -8 5 -15 12 -15 6 0 9 -3 5 -6 -3 -4 0 -19 8 -34 8 -15 16 -39 19 -53 2
-15 8 -32 12 -38 8 -14 9 -14 -83 34 -40 20 -73 35 -73 32 0 -3 -10 -1 -21 6
-12 6 -52 12 -89 14 -38 1 -73 5 -78 9 -6 3 -13 2 -16 -3 -3 -5 -21 -9 -40 -9
-18 0 -42 -4 -52 -10 -11 -5 -25 -7 -31 -5 -7 3 -13 1 -13 -5 0 -5 -17 -14
-37 -20 -42 -13 -149 -89 -159 -112 -3 -10 10 -29 39 -55 55 -50 133 -90 217
-113 29 -8 210 -11 210 -4 0 5 12 8 28 7 37 -1 162 61 162 80 0 28 -29 28 -88
2 -146 -66 -316 -52 -455 37 l-47 31 27 25 c27 24 97 62 139 74 93 28 242 23
305 -9 16 -9 29 -13 29 -10 0 5 73 -39 97 -59 7 -6 30 -26 49 -44 41 -38 76
-61 151 -97 66 -32 108 -40 213 -40 97 0 145 8 198 32 20 9 40 16 44 15 3 -1
12 5 18 13 7 8 16 15 21 15 9 0 24 11 81 62 l30 26 -37 36 c-93 90 -286 160
-302 110 -6 -18 17 -38 44 -39 15 -1 38 -7 51 -13 12 -7 22 -10 22 -7 0 6 81
-39 119 -67 l24 -17 -24 -20 c-31 -25 -99 -60 -149 -76 -49 -16 -170 -26 -170
-14 0 4 -9 5 -20 2 -27 -7 -98 12 -165 44 -57 26 -67 46 -24 48 13 1 34 7 47
14 12 6 22 9 22 6 0 -8 83 37 92 50 4 6 8 7 8 3 0 -16 130 104 130 120 0 7 4
12 9 12 13 0 79 133 85 173 3 19 9 45 14 58 10 28 10 85 0 95 -14 13 -105 4
-174 -17 -73 -23 -164 -76 -164 -96 0 -25 34 -32 59 -12 13 10 29 19 37 19 8
0 14 4 14 9 0 9 122 46 155 46 14 0 19 -6 18 -20 -5 -56 -14 -89 -34 -132 -12
-27 -22 -51 -21 -54 1 -4 -29 -38 -66 -76 -63 -65 -158 -125 -217 -137 -11 -2
-28 -7 -37 -11 -24 -10 -23 -5 17 69 20 35 38 74 40 85 3 12 8 31 12 44 10 35
12 211 2 223 -6 7 -9 16 -8 20 1 5 0 11 -1 14 -1 3 -3 13 -5 22 -13 66 -114
218 -145 218 -9 0 -33 -22 -53 -49z"/>
<path d="M48 943 c-37 -23 -48 -53 -48 -133 0 -77 12 -112 44 -129 55 -29 113
-17 140 30 19 32 29 108 14 110 -25 4 -75 5 -85 1 -20 -6 -16 -39 5 -39 36 0
42 -4 42 -23 0 -24 -31 -53 -59 -55 -36 -3 -55 30 -57 102 -3 57 0 68 21 89
30 30 36 30 73 -1 27 -23 62 -34 62 -19 0 14 -35 64 -49 69 -36 14 -78 13
-103 -2z"/>
<path d="M265 951 c-3 -2 -5 -67 -5 -143 l0 -138 48 -1 c98 -2 125 0 134 9 21
21 -5 32 -73 32 l-70 0 3 38 3 37 58 0 c54 0 63 6 55 33 -2 4 -21 8 -43 8 -22
1 -48 2 -57 3 -14 1 -18 10 -18 44 l0 42 63 -1 c34 0 68 2 75 4 13 4 17 31 5
33 -25 4 -174 4 -178 0z"/>
<path d="M505 948 c-3 -11 0 -265 4 -278 0 -3 22 -4 48 -3 27 1 67 2 90 2 33
1 41 4 39 19 -2 14 -16 18 -73 22 l-70 5 2 105 c0 58 -3 113 -8 123 -9 20 -26
23 -32 5z"/>
<path d="M729 895 c0 -36 -1 -81 -1 -100 0 -135 0 -135 25 -126 21 8 22 14 20
90 -1 44 0 81 2 81 2 0 18 -29 34 -65 18 -38 37 -65 45 -65 14 0 66 96 66 120
0 6 3 10 8 10 4 0 7 -37 7 -82 0 -77 2 -83 21 -86 21 -3 21 0 22 131 0 74 -3
139 -7 146 -15 24 -38 -2 -76 -90 l-40 -90 -45 93 c-58 119 -80 128 -81 33z"/>
<path d="M1048 948 c-3 -11 -3 -259 1 -280 0 -3 9 -4 20 -1 17 4 18 16 18 141
0 128 -5 151 -28 152 -4 0 -9 -6 -11 -12z"/>
<path d="M1158 947 c-2 -7 -4 -70 -3 -142 0 -125 1 -130 21 -133 21 -3 22 1
20 88 0 51 2 94 6 96 7 5 73 -97 70 -108 -1 -5 2 -8 6 -8 5 0 17 -16 28 -35
12 -24 26 -35 41 -35 21 0 22 3 22 139 1 120 -1 140 -15 145 -9 4 -19 4 -22 2
-2 -3 -5 -48 -5 -101 0 -52 -3 -95 -6 -95 -3 0 -33 43 -66 97 -56 89 -88 118
-97 90z"/>
<path d="M1472 940 c-69 -42 -46 -124 42 -146 47 -12 76 -29 76 -45 0 -5 -9
-18 -20 -29 -20 -20 -72 -20 -110 0 -13 7 -21 6 -30 -5 -28 -33 88 -65 148
-40 38 16 55 46 48 86 -4 26 -27 55 -46 59 -3 1 -14 3 -24 5 -51 10 -66 17
-76 35 -17 31 22 64 64 55 49 -11 69 -11 73 2 12 33 -99 51 -145 23z"/>
<path d="M1658 952 c-39 -8 -13 -38 32 -38 l35 1 0 -123 c0 -120 0 -122 23
-122 22 0 22 2 22 120 0 89 3 120 13 122 6 0 23 1 37 2 23 1 44 34 23 37 -23
3 -170 4 -185 1z"/>
<path d="M1935 950 c-42 -16 -58 -46 -61 -121 -5 -105 20 -151 88 -164 36 -7
88 22 102 57 14 34 15 136 2 175 -15 46 -79 72 -131 53z m83 -58 c15 -19 16
-135 2 -163 -13 -23 -72 -26 -90 -4 -13 16 -17 145 -5 165 10 16 47 28 65 22
8 -3 21 -12 28 -20z"/>
<path d="M2143 951 c-5 -3 -10 -68 -10 -143 0 -135 1 -138 22 -138 19 0 22 6
22 43 1 64 2 68 16 66 53 -7 91 3 118 30 38 39 38 78 0 115 -25 24 -39 28 -94
30 -36 2 -69 1 -74 -3z m132 -51 c21 -17 13 -63 -13 -76 -30 -15 -82 -6 -83
15 -2 17 -2 62 0 72 2 10 81 1 96 -11z"/>
<path d="M860 540 c-27 -27 -15 -55 31 -69 39 -12 47 -31 19 -42 -8 -4 -25 -3
-37 2 -15 5 -23 4 -27 -6 -6 -16 14 -25 54 -25 61 0 69 67 10 86 -19 6 -36 18
-38 26 -4 18 32 30 46 16 6 -6 12 -6 17 2 9 15 5 18 -28 24 -19 3 -34 -1 -47
-14z"/>
<path d="M999 543 c-1 -25 -1 -94 0 -120 1 -13 6 -23 11 -23 6 0 10 31 10 74
0 41 -4 78 -10 81 -5 3 -10 -2 -11 -12z"/>
<path d="M1084 548 c-14 -22 -12 -148 2 -148 7 0 14 14 16 32 4 44 25 47 43 4
9 -20 20 -36 25 -36 13 0 13 13 -1 43 -9 19 -8 30 4 48 13 19 13 27 3 41 -17
22 -81 34 -92 16z m69 -24 c12 -12 -6 -34 -29 -34 -17 0 -24 6 -24 20 0 14 7
20 23 20 13 0 26 -3 30 -6z"/>
<path d="M1252 545 c-17 -13 -22 -26 -22 -63 1 -56 18 -82 53 -82 31 0 57 33
57 72 0 30 -19 78 -31 78 -4 0 -13 2 -21 5 -7 3 -23 -2 -36 -10z m58 -50 c9
-48 1 -67 -29 -63 -22 3 -26 8 -26 38 -2 49 4 62 29 58 14 -2 23 -12 26 -33z"/>
<path d="M1389 541 c-1 -18 -1 -109 0 -128 1 -7 8 -13 17 -13 8 0 12 5 9 11
-10 15 4 61 15 54 16 -10 49 4 60 25 15 28 -18 62 -63 65 -28 2 -37 -1 -38
-14z m81 -35 c0 -16 -24 -28 -43 -20 -16 6 -18 36 -4 46 14 9 47 -9 47 -26z"/>
</g>
</svg>
